<svg width="1600" height="980" viewBox="0 0 1600 980" fill="none" xmlns="http://www.w3.org/2000/svg">
  <rect width="1600" height="980" fill="#10213A"/>
  <rect width="1600" height="980" fill="url(#bg)"/>
  <rect x="968" y="112" width="510" height="676" rx="40" fill="rgba(255,255,255,0.06)" stroke="rgba(255,255,255,0.12)"/>
  <rect x="1028" y="184" width="390" height="154" rx="24" fill="rgba(255,255,255,0.08)"/>
  <rect x="1028" y="378" width="390" height="154" rx="24" fill="rgba(255,255,255,0.08)"/>
  <rect x="1028" y="572" width="390" height="154" rx="24" fill="rgba(255,255,255,0.08)"/>
  <circle cx="356" cy="228" r="118" fill="rgba(255,255,255,0.10)"/>
  <circle cx="356" cy="228" r="50" fill="rgba(255,255,255,0.18)"/>
  <rect x="246" y="400" width="126" height="252" rx="62" fill="#FF6A2A"/>
  <rect x="406" y="354" width="126" height="298" rx="62" fill="#24456F"/>
  <rect x="566" y="300" width="126" height="352" rx="62" fill="#5A86B6"/>
  <path d="M274 444C352 470 418 470 498 444" stroke="#FFF2EA" stroke-width="18" stroke-linecap="round"/>
  <path d="M598 362C650 466 650 542 598 646" stroke="#FFB28C" stroke-width="32" stroke-linecap="round"/>
  <path d="M676 362C624 466 624 542 676 646" stroke="#FF8D47" stroke-width="32" stroke-linecap="round"/>
  <circle cx="1112" cy="260" r="46" fill="#FF6A2A"/>
  <circle cx="1112" cy="454" r="46" fill="#173053"/>
  <circle cx="1112" cy="648" r="46" fill="#5A86B6"/>
  <path d="M1206 260H1328" stroke="rgba(255,255,255,0.2)" stroke-width="12" stroke-linecap="round"/>
  <path d="M1206 454H1328" stroke="rgba(255,255,255,0.2)" stroke-width="12" stroke-linecap="round"/>
  <path d="M1206 648H1328" stroke="rgba(255,255,255,0.2)" stroke-width="12" stroke-linecap="round"/>
  <defs>
    <linearGradient id="bg" x1="182" y1="54" x2="1338" y2="862" gradientUnits="userSpaceOnUse">
      <stop stop-color="#112B49"/>
      <stop offset="0.52" stop-color="#1C426C"/>
      <stop offset="1" stop-color="#54789D"/>
    </linearGradient>
  </defs>
</svg>

